<svg width="90" height="90" viewBox="0 0 50 50" fill="none" xmlns="http://www.w3.org/2000/svg">
<g clip-path="url(#clip0_407_271)">
<path d="M47.3748 37.0624V8.44291C47.3734 8.28908 47.3223 8.13983 47.2291 8.01745C47.1359 7.89508 47.0055 7.80617 46.8576 7.76401C38.8474 5.56401 26.3654 2.22572 18.3545 0.0272868C18.2521 -0.00517573 18.1432 -0.0113855 18.0378 0.00922817C17.9324 0.0298419 17.8339 0.0766177 17.7513 0.145255C17.5818 0.256193 17.4615 0.439005 17.4615 0.706193C17.4857 9.93744 17.5107 19.1656 17.5334 28.3968C13.3099 25.3476 5.50055 26.1234 3.56617 31.3523C2.34977 34.6468 3.19977 38.4382 5.78961 40.7663C8.54586 43.2468 12.9013 43.1992 16.2115 42.1093C19.3216 41.0835 21.8412 38.3476 22.3185 35.0929C22.5584 33.457 22.3701 31.6851 22.3701 30.0421V15.5726C27.5904 17.0242 37.2763 19.614 42.499 21.0726C42.506 25.9796 42.5256 31.1046 42.5357 35.4335C39.8341 33.4148 36.0677 33.3218 32.8959 34.3992C28.767 35.7968 27.4912 39.8554 28.3193 43.8781C30.2724 53.339 46.0466 50.8406 47.3224 42.1492C47.5623 40.5023 47.3748 38.7195 47.3748 37.0663" fill="#27AAE1"/>
<path d="M9.25058 30.9219C9.64511 30.5601 9.55293 29.8211 9.04433 29.2703C8.53808 28.7187 7.80605 28.5648 7.41152 28.9281L5.74589 30.4656C5.35214 30.8281 5.44902 31.5679 5.95605 32.1203C6.46074 32.6711 7.19121 32.8234 7.58496 32.4601L9.25058 30.9219ZM34.6092 38.1547C35.0037 37.7914 34.9107 37.0523 34.4021 36.5023C33.8951 35.9515 33.1639 35.7976 32.7701 36.1594L31.1037 37.6992C30.71 38.0594 30.8068 38.8015 31.3131 39.3531C31.8193 39.9039 32.549 40.0547 32.9428 39.6937L34.6092 38.1547" fill="#E7E6E6"/>
</g>
<defs>
<clipPath id="clip0_407_271">
<rect width="50" height="50" fill="white"/>
</clipPath>
</defs>
</svg>
