<svg width="90" height="90" viewBox="0 0 46 46" fill="none" xmlns="http://www.w3.org/2000/svg">
<path d="M11.7875 44.4907C7.40315 44.4907 3.16252 44.4907 1.5094 22.3532C-0.718726 -7.83433 38.9563 3.16254 38.9563 20.5563C38.9563 30.1157 11.7875 44.4907 11.7875 44.4907" fill="#D3976E"/>
<path opacity="0.5" d="M2.58754 22.3531C1.65317 9.41558 8.33754 4.09683 16.3875 3.52183V3.44995C7.90629 3.5937 0.50317 8.84058 1.50942 22.3531C3.01879 42.8375 6.82817 44.4906 10.7813 44.4906C7.11567 43.8437 3.95317 41.0406 2.58754 22.3531Z" fill="white"/>
<path d="M13.8717 18.3281L3.09043 23.0719L1.58105 26.5938L3.52168 27.7437L2.15605 30.8344L3.23418 31.4812L1.7248 34.7156L4.09668 36.1531L2.73105 39.2437L5.53418 40.9688L5.03105 42.1187L8.26543 44.0594L8.9123 42.6219L10.4936 44.4187L13.0811 43.7719L21.4904 27.6L13.8717 18.3281" fill="#594640"/>
<path d="M16.5312 28.0312L18.6874 25.1562L2.65928 23.0718L1.50928 25.6593L3.88115 27.0968L4.5999 25.5155L5.82178 26.2343L4.8874 28.2468L3.23428 27.2405L2.08428 29.828L4.45615 31.1937L5.39053 29.0374L6.97178 29.9718L6.8999 30.1874L8.3374 31.0499L7.90615 31.4812L5.67803 30.1874L4.67178 32.3437L2.73115 31.1937L1.58115 33.7812L3.95303 35.1468L4.8874 33.0624L6.82803 34.2124L7.40303 32.8468L7.90615 33.4218L7.1874 35.0749L6.0374 34.428L5.10303 36.4405L3.7374 35.578L2.5874 38.1655L4.95928 39.603L5.89365 37.5905L7.25928 38.453L7.4749 37.9499L8.19365 38.8124L7.7624 39.5312L6.10928 38.5249L4.95928 41.1124L7.33115 42.478L8.3374 40.2499L10.0624 42.6937L11.6437 40.8968L12.9374 42.3343L14.8062 40.2499L12.9374 38.2374L11.3562 40.0343L10.7812 39.4593L11.1405 38.7405L12.7937 36.7999L13.6562 37.8062L15.5249 35.7218L13.6562 33.5655L11.9312 35.578L11.0687 34.5718L9.63115 36.153L10.5655 34.0687L9.70303 33.5655L10.2062 32.9905L10.6374 33.2062L11.8593 34.5718L13.728 32.4874L11.8593 30.403L11.7155 30.5468L11.0687 30.1874L11.9312 29.253L13.153 30.6187L12.9374 30.8343L14.5905 32.703L14.2312 33.1343L16.0999 35.2187L17.9687 33.1343L16.5312 28.0312" fill="#89664C"/>
<path d="M6.9001 27.3845L5.31885 26.3782L4.45635 28.1751L6.10947 29.1813L6.9001 27.3845ZM10.0626 26.4501L10.5657 25.372L9.55947 24.7251L8.98447 25.8751L10.0626 26.4501ZM7.61885 30.3313L7.11572 31.4813L8.12197 32.1282L8.6251 30.9782L7.61885 30.3313ZM7.97822 32.847L7.4751 33.9251L8.48135 34.572L8.98447 33.422L7.97822 32.847ZM9.4876 29.8282L10.4938 30.4032L10.997 29.3251L9.99072 28.6782L9.4876 29.8282ZM3.23447 32.1282L2.22822 31.5532L1.7251 32.6313L2.73135 33.2782L3.23447 32.1282ZM3.37822 36.4407L2.8751 37.5907L3.88135 38.1657L4.38447 37.0876L3.37822 36.4407ZM5.31885 40.5376L6.3251 41.1126L6.82822 39.9626L5.82197 39.3876L5.31885 40.5376ZM5.24697 33.2782L5.7501 32.1282L4.74385 31.5532L4.24072 32.6313L5.24697 33.2782ZM5.4626 34.0688L4.6001 35.8657L6.25322 36.872L7.04385 35.0751L5.4626 34.0688ZM7.7626 38.0938L8.76885 38.6688L9.27197 37.5907L8.26572 36.9438L7.7626 38.0938ZM8.69697 40.7532L9.70322 41.3282L10.2063 40.2501L9.2001 39.6032L8.69697 40.7532ZM13.0813 25.3001L12.2907 24.3657L11.5001 25.3001L12.2907 26.1626L13.0813 25.3001ZM13.872 28.1032L12.6501 26.6657L11.3563 28.1032L12.6501 29.5407L13.872 28.1032ZM14.2313 29.397L13.4407 30.3313L14.2313 31.1938L15.022 30.3313L14.2313 29.397ZM14.6626 32.6313L15.4532 33.5657L16.2438 32.6313L15.4532 31.697L14.6626 32.6313ZM11.8595 33.8532L12.6501 34.7876L13.4407 33.8532L12.6501 32.9188L11.8595 33.8532ZM12.0751 38.3813L12.8657 39.2438L13.6563 38.3813L12.8657 37.447L12.0751 38.3813ZM10.7095 41.1126L11.5001 42.047L12.2907 41.1126L11.5001 40.1782L10.7095 41.1126Z" fill="#D3976E"/>
<path d="M32.8469 6.325L26.0188 1.79688L25.0844 1.4375L25.3719 4.24063L17.25 2.5875L16.3875 2.80313L7.90625 8.625L4.52813 17.25L2.15625 17.9688V19.4062L7.1875 17.9688L4.81562 20.2688L5.53437 23.4312L18.4719 24.2937L32.8469 6.325Z" fill="#FFEC40"/>
<path d="M16.1719 3.30627C14.5907 3.01877 13.2969 4.74377 11.7875 5.24689C10.2063 5.82189 13.0813 7.97814 13.9438 7.97814C16.3875 7.97814 20.9875 4.24064 16.1719 3.30627ZM8.26565 12.2906C8.84065 10.6375 8.62503 8.62502 6.3969 10.0625C4.52815 11.2844 6.54065 13.1531 4.24065 14.2313C2.01253 15.2375 3.5219 18.1125 5.46253 17.25C7.18753 16.6031 7.76253 13.9438 8.26565 12.2906ZM8.26565 12.2906C8.26565 12.3625 8.26565 12.3625 8.26565 12.2906V12.2906ZM17.7532 22.4969C17.8969 22.7125 18.1125 22.8563 17.7532 22.4969C15.0938 19.9094 11.2125 26.0906 12.075 27.2406C15.4532 31.6969 19.3344 24.15 17.7532 22.4969" fill="#83BF4F"/>
<path d="M9.55918 18.3281L7.69043 22.7125L12.4342 24.4375L15.0936 19.6219L9.55918 18.3281Z" fill="#ED4C5C"/>
<path d="M6.97168 17.4656L9.41543 19.4062L13.5123 16.5312L10.8529 14.375L6.97168 17.4656ZM15.0217 14.0156L18.3279 16.5312L22.6404 13.9437L20.4123 10.925L15.0217 14.0156ZM11.4279 8.26562L11.7154 11.7156L16.3873 9.55938L16.1717 7.11562L14.0154 5.89375L11.4279 8.26562ZM21.1311 2.3L19.9092 5.96563L25.1561 6.46875L24.8686 2.94687L21.1311 2.3ZM26.5936 2.15625L26.8811 5.75L31.6967 5.24688L32.2717 3.01875L26.5936 2.15625Z" fill="#ED4C5C"/>
<path d="M25.3002 8.40932C27.2408 8.91244 24.5096 8.26557 25.3002 8.40932Z" fill="#83BF4F"/>
<path d="M25.8752 8.62494C25.2283 8.12182 23.9346 10.2062 23.2158 10.6374C22.3533 11.2124 15.5252 12.8656 21.4189 14.3749C23.2877 14.8781 27.3127 9.77494 25.8752 8.62494ZM28.9658 6.97182C28.3908 6.61244 29.5408 7.33119 28.9658 6.97182V6.97182ZM31.1221 4.09682C29.9002 5.74994 30.1158 2.22807 28.3189 3.80932C27.2408 4.74369 27.8158 6.32494 28.9658 6.97182C29.9721 7.61869 33.4939 7.25932 33.7096 5.60619C33.8533 4.52807 31.9846 2.94682 31.1221 4.09682ZM5.03143 18.6874C4.02518 18.6874 1.94081 21.3468 1.94081 21.3468C0.0720567 23.3593 3.95331 23.3593 4.02518 23.7187C3.45018 24.1499 2.87518 24.5812 2.22831 24.9406C2.22831 26.3781 5.24706 24.7968 5.03143 24.9406C3.30643 27.8874 10.4221 24.4374 10.8533 24.1499C13.2971 22.6406 9.34393 18.6874 5.03143 18.6874ZM12.9377 15.7406C11.9314 15.6687 13.5127 15.7406 12.9377 15.7406Z" fill="#83BF4F"/>
<path d="M14.6627 11.7156C12.2189 7.18743 11.9314 11.7156 11.5002 12.2187C11.2127 12.5062 7.90644 12.2187 9.41582 14.0156C10.0627 14.8062 12.0033 15.9562 13.0096 15.6687C15.0939 15.0937 15.1658 12.6499 14.6627 11.7156Z" fill="#83BF4F"/>
<path d="M14.8781 17.25L7.04375 18.2562L5.03125 19.7656L5.89375 20.4844L13.6562 17.9688L15.5969 17.825L14.8781 17.25ZM20.8437 9.12812L17.4656 8.84063L10.0625 11.2844L11.2125 12.2188L17.3219 10.2781L20.9156 9.91875L20.8437 9.12812ZM16.6031 15.2375L15.8125 15.3094L17.3219 18.975L19.55 19.4062L20.125 18.1125L18.8312 17.6094L16.6031 15.2375ZM15.4531 19.9094L17.0344 24.3656L15.8844 25.1562L14.5906 21.2031L15.4531 19.9094ZM27.7437 5.24688L26.2344 4.81562L25.0844 1.4375L24.15 1.50937L25.3 5.4625L27.2406 6.25312L27.7437 5.24688ZM21.275 3.80938L16.3875 2.80313L15.8844 3.59375L21.0594 4.95938L21.275 3.80938Z" fill="#FFFFD4"/>
<path d="M11.7876 44.4907C11.7876 44.4907 14.8063 44.4907 16.5313 32.8469C18.3282 21.0594 26.2345 5.17505 38.5251 5.17505C42.7657 5.17505 45.7126 7.97817 44.0595 23.2875C43.8438 25.9469 15.5251 44.4907 11.7876 44.4907" fill="#FBBF67"/>
<path d="M38.597 4.4563C23.0001 4.4563 18.1845 22.1375 16.5313 32.8469C14.7345 44.4907 9.99072 44.4907 9.99072 44.4907C9.99072 44.4907 13.0095 44.85 13.872 44.1313C15.1657 43.0532 16.6751 40.25 17.6095 34.0688C19.2626 23.2875 25.0126 5.53442 38.9563 5.53442C42.9095 5.53442 44.2032 11.2125 44.2032 11.2125C44.2032 11.2125 43.5563 4.4563 38.597 4.4563" fill="#FDDFB3"/>
<path d="M28.1748 29.325L28.8936 28.6063L29.6123 29.325L28.8936 30.1157L28.1748 29.325ZM29.1092 19.2625L29.8279 18.4719L30.5467 19.2625L29.8279 20.0532L29.1092 19.2625ZM40.3217 19.2625L41.0404 18.4719L41.7592 19.2625L41.0404 20.0532L40.3217 19.2625ZM38.9561 11.3563L39.6748 10.5657L40.3936 11.3563L39.6748 12.075L38.9561 11.3563Z" fill="#D3976E"/>
<path d="M34.7154 24.0063L33.9967 24.725L34.7154 25.5156L35.4342 24.725L34.7154 24.0063ZM36.4404 14.95L35.7217 15.6687L36.4404 16.4594L37.1592 15.6687L36.4404 14.95ZM30.9061 12.2188L30.1873 13.0094L30.9061 13.8L31.6248 13.0094L30.9061 12.2188ZM24.0779 23.575L23.3592 24.3656L24.0779 25.0844L24.7967 24.3656L24.0779 23.575ZM22.4248 33.35L21.7061 34.1406L22.4248 34.8594L23.1436 34.1406L22.4248 33.35" fill="#FDDFB3"/>
</svg>
