<svg width="90" height="90" viewBox="0 0 50 50" fill="none" xmlns="http://www.w3.org/2000/svg">
<path d="M23.1256 28.7991V41.811C20.3046 43.1601 15.2779 45.7266 15.2779 46.8862C15.2779 48.498 19.6265 49.8046 24.9908 49.8046C30.355 49.8046 34.7036 48.498 34.7036 46.8862C34.7036 45.7267 29.678 43.1606 26.8568 41.8114V28.8001C47.9426 27.4928 37.865 3.65063 37.865 3.65063H37.8449C37.858 3.72153 37.8648 3.79347 37.865 3.86558C37.865 6.00044 32.1052 7.7311 25 7.7311C17.8949 7.7311 12.1351 6.00044 12.1351 3.86558C12.1351 3.79341 12.1422 3.72183 12.1552 3.65063H12.1351C12.1351 3.65063 2.06312 27.4795 23.1256 28.7991V28.7991Z" fill="#D8D6CE"/>
<path d="M12.1349 3.86553C12.1349 6.00039 17.8946 7.73105 24.9998 7.73105C32.105 7.73105 37.8647 6.00049 37.8647 3.86553C37.8647 1.73057 32.1049 0 24.9998 0C17.8947 0 12.1349 1.73066 12.1349 3.86553V3.86553Z" fill="#E8E7E2"/>
<path d="M13.6124 5.16736C13.6124 5.16736 5.35588 26.5632 24.9998 26.5632C44.6438 26.5632 36.3872 5.16736 36.3872 5.16736H13.6124V5.16736Z" fill="#930635"/>
<path d="M13.6124 5.16743C13.6124 6.85513 18.7107 8.22319 24.9998 8.22319C31.2889 8.22319 36.3872 6.85503 36.3872 5.16743C36.3872 3.47983 31.2889 2.11157 24.9998 2.11157C18.7107 2.11157 13.6124 3.47974 13.6124 5.16743V5.16743Z" fill="#B52D6B"/>
<path d="M31.9417 22.0741C32.4327 22.0741 32.9109 21.8222 33.1789 21.369C35.4812 17.4763 35.3772 13.4383 35.0294 10.3552C34.9406 9.56722 34.23 9.00022 33.4416 9.08929C32.6536 9.17825 32.0868 9.88909 32.1756 10.6772C32.4918 13.4789 32.5644 16.7665 30.707 19.907C30.3033 20.5896 30.5293 21.4701 31.2119 21.8739C31.4327 22.0049 31.6848 22.0741 31.9417 22.0741V22.0741Z" fill="#BF4F7A"/>
</svg>
