<svg width="90" height="90" viewBox="0 0 62 62" fill="none" xmlns="http://www.w3.org/2000/svg">
<path opacity="0.5" d="M59.7862 24.4803C58.6043 19.8545 57.5775 17.8201 55.4704 17.4278C53.4457 17.05 50.5686 18.3626 49.8517 18.7501L49.842 18.7162C49.842 18.7162 50.0067 17.8201 49.7742 16.9192C49.5417 16.0183 48.6117 15.655 48.3453 15.7228L12.3901 21.0122L12.1479 22.4411L11.6926 24.7322C10.5204 24.519 7.42527 24.1073 5.75418 25.3376C3.66652 26.8731 2.82371 29.697 2.31027 33.3928C1.79683 37.0886 2.12621 39.0212 3.2984 40.2758C4.73699 41.8209 6.99418 42.2569 8.17121 42.3828L7.49308 45.7734C7.49308 45.7734 6.65996 46.0737 6.16105 47.4687C5.66215 48.8637 6.32574 50.1958 6.32574 50.1958C6.32574 50.1958 7.7159 47.7448 18.44 49.6387C29.3239 51.5617 29.8276 53.9206 29.8276 53.9206C29.8276 53.9206 30.4282 53.32 30.8932 51.8911C31.3582 50.4622 30.4961 48.9654 30.4961 48.9654L32.5886 39.7236L34.6811 45.4392C34.6811 45.4392 33.9061 46.3789 34.25 47.7351C34.6617 49.3675 38.5318 52.6903 48.1225 49.0769C57.6307 45.4876 57.9311 40.4308 57.3837 38.8614C57.0107 37.7861 55.7562 37.5003 55.7562 37.5003L55.204 35.742C55.7417 35.432 56.57 34.8895 57.8197 33.9401C60.7453 31.7217 60.9826 29.169 59.7862 24.4803V24.4803ZM5.38605 37.1612C4.65465 34.9283 5.89949 29.3095 6.96027 28.4812C8.52965 27.2558 10.1911 27.8515 10.9854 28.2633L8.82996 39.0794C7.99199 39.089 5.96246 38.9244 5.38605 37.1612V37.1612ZM57.127 28.8736C56.8848 30.7723 54.7584 31.4989 53.935 31.712L50.8301 21.855C51.5712 21.3512 53.0195 20.6198 54.2256 20.7554C55.485 20.9008 57.4273 26.5147 57.127 28.8736Z" fill="white"/>
<path opacity="0.7" d="M59.7862 24.4803C58.6043 19.8545 57.5532 17.9315 55.4704 17.4278C52.5787 16.7254 49.842 18.7162 49.842 18.7162C49.842 18.7162 50.0067 17.8201 49.7742 16.9192C49.5417 16.0183 48.6117 15.655 48.3453 15.7228L12.3901 21.0122L12.1479 22.4411L11.6926 24.7322C10.5204 24.519 7.42527 24.1073 5.75418 25.3376C3.66652 26.8731 2.82371 29.697 2.31027 33.3928C1.79683 37.0886 2.12621 39.0212 3.2984 40.2758C4.73699 41.8209 6.99418 42.2569 8.17121 42.3828L7.49308 45.7734C7.49308 45.7734 6.65996 46.0737 6.16105 47.4687C5.66215 48.8637 6.32574 50.1958 6.32574 50.1958C6.32574 50.1958 7.07168 48.9703 11.3971 48.9509C13.1215 48.9412 15.3884 49.0914 18.44 49.6387C29.0817 51.5472 29.8276 53.9206 29.8276 53.9206C29.8276 53.9206 30.4282 53.32 30.8932 51.8911C31.3582 50.4622 30.4961 48.9654 30.4961 48.9654L32.5886 39.7236L34.6811 45.4392C34.6811 45.4392 33.9061 46.3789 34.25 47.7351C34.6617 49.3675 38.5318 52.6903 48.1225 49.0769C57.6307 45.4876 57.9311 40.4308 57.3837 38.8614C57.0107 37.7861 55.7562 37.5003 55.7562 37.5003L55.204 35.742C55.7417 35.432 56.57 34.8895 57.8197 33.9401C60.7453 31.7217 60.9826 29.169 59.7862 24.4803V24.4803ZM5.38605 37.1612C4.65465 34.9283 5.89949 29.3095 6.96027 28.4812C8.52965 27.2558 10.1911 27.8515 10.9854 28.2633L8.82996 39.0794C7.99199 39.089 5.96246 38.9244 5.38605 37.1612V37.1612ZM57.127 28.8736C56.8848 30.7723 54.7584 31.4989 53.935 31.712L50.8301 21.855C51.5712 21.3512 53.0195 20.6198 54.2256 20.7554C55.485 20.9008 57.4273 26.5147 57.127 28.8736Z" fill="#E0E0E0"/>
<path opacity="0.7" d="M17.5927 54.8893C7.16414 53.3296 6.32617 50.1957 6.32617 50.1957C6.32617 50.1957 7.61945 47.7738 18.4404 49.6386C28.9901 51.455 29.828 53.9205 29.828 53.9205C29.828 53.9205 28.9659 56.5943 17.5927 54.8893V54.8893Z" fill="#BCBCBC"/>
<path d="M14.1245 23.7876C14.1245 23.7876 10.3657 42.5087 10.2592 43.3515C10.1526 44.1943 10.1526 45.0032 11.102 45.2503C12.0514 45.4973 15.9506 45.5651 19.9176 46.3062C23.8846 47.0473 26.5923 48.2388 27.222 48.4471C27.8517 48.6554 28.5589 48.2728 28.9415 47.0085C29.329 45.7443 33.4704 27.6238 33.4704 27.6238L24.2043 21.3657L14.1245 23.7876Z" fill="url(#paint0_radial_407_245)"/>
<path d="M33.5767 35.8921L35.3979 26.5194L47.3571 19.3943C47.3571 19.3943 52.8063 36.2651 53.0388 36.9916C53.3295 37.9023 51.9538 40.9732 46.4417 43.303C40.9295 45.6329 37.2192 44.6254 36.7542 43.7341C36.294 42.8477 33.5767 35.8921 33.5767 35.8921Z" fill="url(#paint1_radial_407_245)"/>
<path d="M36.0761 21.7096L46.4901 16.7302L47.5994 20.1063C47.5994 20.1063 46.742 22.378 41.9176 24.5529C37.7181 26.4468 35.2914 25.9915 35.2914 25.9915L36.0761 21.7096V21.7096ZM14.7975 20.7215L13.3589 27.3477C13.3589 27.3477 15.4998 25.9915 20.9733 26.1562C26.4467 26.3208 33.0003 29.7502 33.0003 29.7502L33.3248 28.2826L34.5164 22.8673L14.7975 20.7215V20.7215Z" fill="#F4D097"/>
<path d="M11.3295 18.973C10.9323 22.1747 12.5162 24.3835 16.3524 24.7855C19.7528 25.1391 21.6903 23.4438 23.589 25.1827C26.0012 27.3963 22.7171 34.5893 22.4798 35.6985C22.2424 36.8077 22.0826 38.1882 23.2306 38.503C24.3785 38.8179 25.202 37.3841 25.5217 36.1296C26.3112 33.0441 27.774 28.3021 29.634 27.8274C32.2399 27.1638 31.8331 29.1401 34.5359 28.6993C36.9481 28.3021 37.8151 25.9722 37.9749 24.9454C38.1348 23.9185 37.5778 22.4169 37.5778 22.4169C37.5778 22.4169 38.9631 21.9422 40.5034 21.0316C42.0437 20.121 42.3924 19.3896 43.5888 18.7405C45.3278 17.7912 47.8998 18.0527 49.1253 15.936C50.467 13.6013 50.3507 8.56381 45.3471 8.0649C43.7681 7.90506 42.9156 8.47662 41.8499 8.38459C40.6342 8.27803 40.2031 7.45943 38.096 7.85178C35.9842 8.24412 35.4853 9.80865 34.2598 10.1235C32.9035 10.4722 30.8982 10.1622 28.9607 11.5863C27.0232 13.0104 26.5485 14.8655 26.5485 14.8655C26.5485 14.8655 25.0615 14.2504 23.032 14.3908C20.8232 14.541 19.9078 15.4565 18.3287 15.3402C16.7496 15.224 11.9737 13.7515 11.3295 18.973V18.973Z" fill="#FFEBC9"/>
<path d="M42.5037 27.309C41.937 27.1976 41.4332 27.6675 41.3945 28.4182C41.3557 29.169 41.656 29.6001 42.0338 29.6195C42.4117 29.6389 42.8234 29.3579 42.9735 28.6459C43.1237 27.929 42.9735 27.401 42.5037 27.309V27.309ZM41.5592 33.6689C41.3267 34.066 41.6173 34.4923 41.9321 34.72C42.247 34.9476 42.7556 34.8895 42.8718 34.6279C42.9832 34.3664 43.022 33.8771 42.649 33.5768C42.276 33.2765 41.8062 33.2571 41.5592 33.6689ZM44.4509 34.9815C43.9423 34.9234 43.5306 35.3399 43.5306 36.2021C43.5306 37.0643 43.8503 37.3889 44.3201 37.4228C44.8626 37.4615 45.1629 36.58 45.1823 36.052C45.2017 35.5289 45.0903 35.059 44.4509 34.9815V34.9815ZM45.4051 39.8204C45.0467 39.4281 44.4315 39.6121 44.1457 40.082C43.9132 40.4646 43.8648 41.0556 44.2038 41.3026C44.5429 41.5448 45.0563 41.3995 45.2743 41.0217C45.5553 40.5373 45.594 40.0287 45.4051 39.8204ZM21.3753 30.0845C21.1234 30.2782 21.0943 30.8353 21.3753 31.247C21.6562 31.6587 22.1454 31.7362 22.3149 31.4698C22.4845 31.2082 22.407 30.719 22.2568 30.4187C22.1067 30.1232 21.7676 29.7842 21.3753 30.0845V30.0845ZM19.9657 34.72C20.4017 35.1365 21.0895 34.7926 21.3898 34.3615C21.6901 33.9304 21.7628 33.4412 21.4624 33.1409C21.1621 32.8406 20.5906 32.8987 20.1692 33.199C19.6654 33.5575 19.5346 34.3082 19.9657 34.72V34.72ZM18.2607 35.5628C17.7182 35.4901 17.229 36.0229 17.229 36.7834C17.229 37.6262 17.7376 38.3382 18.2413 38.285C18.7645 38.2268 19.0842 37.5729 19.1035 36.9142C19.1229 36.2603 18.8226 35.6403 18.2607 35.5628V35.5628ZM17.8442 41.5206C17.4567 41.5884 17.2435 42.0098 17.3162 42.5668C17.384 43.0948 17.6988 43.5356 18.2413 43.4387C18.6482 43.3709 18.7838 42.8139 18.7306 42.2859C18.6821 41.7579 18.2849 41.4431 17.8442 41.5206V41.5206Z" fill="#FFE267"/>
<path d="M5.33788 28.0164C5.92881 28.4474 6.46647 27.2898 7.2996 26.8345C8.12303 26.384 8.8835 26.0837 8.53475 25.4879C8.186 24.897 7.02835 24.9793 6.22428 25.5412C5.42022 26.1079 4.59194 27.4739 5.33788 28.0164V28.0164ZM13.9404 24.6257C13.2962 24.4901 13.0007 24.897 12.8941 25.4056C12.7876 25.9239 12.9474 26.4809 13.4608 26.6165C13.9743 26.7521 14.5071 26.3453 14.6185 25.7834C14.7202 25.2312 14.5216 24.7468 13.9404 24.6257ZM13.4463 27.3237C12.4921 27.1396 12.153 28.4814 11.7026 30.9226C11.2908 33.141 9.89585 40.6828 9.89585 41.2737C9.89585 41.8646 9.89585 42.5089 10.5158 42.6687C11.1358 42.8285 11.6687 42.2715 11.8963 41.1865C12.0998 40.2226 13.9549 29.4404 14.0615 28.7139C14.168 27.9873 13.9598 27.4206 13.4463 27.3237Z" fill="white"/>
<path d="M6.1707 29.9489C6.19976 29.9925 7.04258 28.5781 8.98976 28.7041C10.1377 28.7767 10.627 29.1594 10.7916 29.077C10.9563 28.9947 11.2905 27.7692 11.184 27.5028C11.0823 27.2316 9.91008 26.8295 8.68461 27.033C6.55336 27.3963 5.96242 29.6486 6.1707 29.9489V29.9489ZM2.5718 39.1569C2.48945 39.3361 3.35164 41.4286 5.09055 42.3053C6.63086 43.0803 8.05976 43.0658 8.13726 42.8236C8.20023 42.6347 8.34555 42.0341 8.36492 41.4141C8.37945 41.0072 7.55117 41.2833 5.69117 40.7069C3.3468 39.99 2.65414 38.968 2.5718 39.1569Z" fill="#B0B0B0"/>
<path d="M19.2007 17.1276C18.5129 17.3165 17.1518 16.6868 15.8295 16.8127C14.5992 16.929 13.3882 17.7476 13.2478 19.4719C13.0104 22.3879 15.7762 22.5768 17.0888 22.5235C18.4063 22.4702 22.1699 21.6032 23.9863 22.9691C25.8173 24.3496 25.9626 26.786 25.6962 28.1035C25.4298 29.421 23.9185 34.4488 23.7199 35.1027C23.3518 36.3379 23.9815 36.4735 24.432 35.7324C24.8776 34.9962 26.4567 29.2854 27.1445 28.0212C27.8323 26.7569 28.5637 25.8124 29.8037 25.6768C31.7799 25.4685 31.7509 26.3355 33.9112 26.3355C35.8051 26.3355 36.5704 24.5094 35.6743 22.6785C34.4876 20.2566 30.8306 20.0483 30.3849 19.811C29.9393 19.5737 28.646 16.8612 25.517 16.2557C22.3879 15.6502 20.804 16.6819 19.2007 17.1276V17.1276ZM28.3651 15.3596C28.3651 15.3596 29.1546 15.936 29.8715 16.6868C30.3268 17.1615 30.8645 18.1351 31.499 18.3191C32.1335 18.5032 32.9424 18.4063 34.2987 19.0069C35.6549 19.6076 36.3476 20.4213 36.3476 20.4213C36.3476 20.4213 37.7959 20.2082 39.0892 19.2443C40.3824 18.2804 41.6176 16.7158 43.279 16.3526C44.9356 15.9893 48.8735 15.3838 47.6771 12.2257C46.379 8.806 43.0949 10.5352 42.131 10.448C41.1671 10.3608 40.4987 9.24194 38.0623 9.87647C36.4203 10.3027 36.0812 11.8382 34.4537 12.0174C32.8262 12.1966 31.6492 11.8624 30.2348 12.9183C28.8204 13.9743 28.3651 15.3596 28.3651 15.3596V15.3596Z" fill="white"/>
<path d="M28.3698 9.53251C28.3456 9.53251 28.3214 9.53251 28.2923 9.52767C27.8515 9.48407 27.5318 9.09657 27.5706 8.65579L28.055 3.53595C28.0937 3.09517 28.4861 2.77063 28.9268 2.81423C29.3676 2.85782 29.6873 3.24532 29.6486 3.6861L29.1642 8.80595C29.1254 9.22251 28.7767 9.53251 28.3698 9.53251V9.53251ZM26.1368 10.7677C25.8801 10.7677 25.6234 10.6417 25.4684 10.4092L21.9422 5.10532C21.7 4.7372 21.7968 4.24313 22.165 3.9961C22.5331 3.75392 23.0272 3.85079 23.2742 4.21892L26.8004 9.52282C27.0426 9.89095 26.9457 10.385 26.5776 10.632C26.442 10.7241 26.2918 10.7677 26.1368 10.7677ZM24.117 12.6325C24.0201 12.6325 23.9232 12.6131 23.8264 12.5792L18.5854 10.5303C18.3877 10.4531 18.2287 10.3006 18.1433 10.1062C18.058 9.91189 18.0532 9.69161 18.1301 9.49376C18.29 9.08204 18.755 8.8786 19.1667 9.03845L24.4125 11.0922C24.8242 11.252 25.0276 11.717 24.8678 12.1288C24.7418 12.4436 24.4367 12.6325 24.117 12.6325V12.6325Z" fill="#FF2A23"/>
<path d="M35.2381 32.5888C34.4873 32.9036 34.6326 34.1872 35.2381 35.7857C35.8435 37.3841 37.2482 41.4771 37.5631 42.1552C37.8779 42.8333 38.2896 43.3419 39.0646 43.0997C39.8396 42.8576 39.5248 41.913 39.2584 40.9685C38.992 40.024 37.1998 34.938 36.9092 34.1388C36.6185 33.3396 36.2746 32.1529 35.2381 32.5888Z" fill="#FEFFFF"/>
<path d="M8.89307 49.1204C8.89307 49.1204 9.73103 51.426 17.9121 52.5982C26.0932 53.7704 28.0307 52.4432 28.0307 52.4432C28.0307 52.4432 25.202 50.7188 18.3481 49.5902C11.1212 48.3987 8.89307 49.1204 8.89307 49.1204V49.1204Z" fill="#BCBCBC"/>
<path d="M8.10826 46.3693C7.39138 46.2773 6.96513 46.9166 6.7956 47.2751C6.63092 47.6335 6.46138 48.5877 7.08138 48.6846C7.70138 48.7815 8.22451 48.1857 8.41826 47.682C8.60716 47.1782 8.6556 46.442 8.10826 46.3693V46.3693Z" fill="white"/>
<path d="M9.01422 46.9408C8.93672 47.6577 9.77953 47.7304 10.9227 47.7497C12.0658 47.7691 15.9941 48.1033 18.5564 48.5829C23.8991 49.5855 27.2897 50.966 28.3844 51.5182C29.4839 52.0655 29.5905 51.4794 29.6002 51.3293C29.6244 50.8982 28.8833 50.2104 27.9048 49.7308C27.1492 49.3627 24.5191 47.8224 18.9584 46.9651C13.5722 46.1319 10.8016 46.3693 10.2252 46.3935C9.65844 46.4177 9.06266 46.5146 9.01422 46.9408Z" fill="#D4D4D4"/>
<path d="M36.7981 45.0661C36.6915 45.4149 37.2679 45.9041 38.5806 46.1463C40.305 46.4611 43.4873 46.2044 46.9215 44.8385C50.3364 43.4822 52.3707 41.6852 53.5042 40.3144C54.2114 39.4571 54.2065 38.4641 53.9353 38.2461C53.5914 37.97 53.4025 38.8274 52.6226 39.7622C51.867 40.668 50.0893 42.31 46.5534 43.8891C43.0465 45.4536 40.3437 45.4391 38.7792 45.2405C37.6893 45.1049 36.9482 44.5721 36.7981 45.0661V45.0661Z" fill="#9E9E9E"/>
<path d="M35.519 46.6162C35.398 47.2798 36.4926 47.9095 37.0061 48.1371C38.4931 48.7862 42.4069 49.1252 47.4976 47.1538C54.1045 44.5915 55.4995 41.6513 55.9403 40.8231C56.3908 39.9706 56.197 39.5782 55.9887 39.4668C55.6642 39.2924 55.2767 39.5346 54.8311 40.1207C53.4506 41.9274 51.5422 43.8117 46.9939 45.6717C42.4456 47.5317 39.302 47.4541 37.195 46.776C36.6137 46.5871 35.645 45.9381 35.519 46.6162V46.6162Z" fill="#D5D5D5"/>
<path d="M55.0107 35.1414C54.783 35.7033 55.2093 36.3475 55.2868 36.3718L55.3643 36.396C55.3643 36.396 57.7329 35.2674 59.2248 33.4752C60.7554 31.6394 60.707 29.1013 60.4793 29.0722C60.3049 29.048 59.869 31.1357 57.728 33.1555C55.9504 34.8314 55.3013 34.41 55.0107 35.1414V35.1414ZM50.5254 21.0074L50.9904 22.4363C50.9904 22.4363 52.2401 21.143 53.887 21.2689C55.5338 21.3949 55.8777 23.2016 55.9455 23.2016C56.3234 23.2064 56.3282 20.7313 54.7298 20.0919C52.7874 19.3072 50.5254 21.0074 50.5254 21.0074V21.0074Z" fill="#B0B0B0"/>
<defs>
<radialGradient id="paint0_radial_407_245" cx="0" cy="0" r="1" gradientUnits="userSpaceOnUse" gradientTransform="translate(18.4926 51.6498) scale(29.1066)">
<stop offset="0.331" stop-color="#FDB408"/>
<stop offset="0.502" stop-color="#F1A20D"/>
<stop offset="0.745" stop-color="#DB8116"/>
</radialGradient>
<radialGradient id="paint1_radial_407_245" cx="0" cy="0" r="1" gradientUnits="userSpaceOnUse" gradientTransform="translate(37.1262 17.8787) scale(21.8027)">
<stop offset="0.628" stop-color="#DB8116"/>
<stop offset="0.786" stop-color="#EE9D0E"/>
<stop offset="0.939" stop-color="#FDB408"/>
</radialGradient>
</defs>
</svg>
